<svg width="1028" height="29" fill="none" xmlns="http://www.w3.org/2000/svg"><path d="M625.88 15.57q-.96-1-2.58-1.36 1.14-.34 1.88-1.09.14-.14.26-.3.25-.31.42-.67.37-.75.37-1.68 0-.85-.31-1.57-.19-.44-.5-.82-.06-.08-.13-.16-.78-.91-2.03-1.4-1.36-.54-2.98-.54-1.35 0-2.7.39-1.36.38-2.61 1.14l.45 1.04q1.14-.75 2.37-1.11 1.24-.36 2.46-.36 2.01 0 3.36.94l.01.01q.71.49 1.05 1.17.31.63.31 1.41 0 .86-.37 1.5-.27.45-.71.8-1.08.82-3 .82h-3.41v1.06h3.46q2.26 0 3.5.87.55.38.85.9.4.68.4 1.59 0 .73-.27 1.34-.17.39-.45.73-.72.88-1.94 1.35-1.23.46-2.65.46-.48 0-.95-.05-1-.11-1.96-.46-.75-.27-1.4-.68-.6-.38-1.13-.87l-.5.86q.57.52 1.22.93.76.47 1.62.78 1.08.39 2.19.51.53.06 1.06.06 1.71 0 3.16-.57 1.3-.51 2.15-1.43.11-.12.21-.25.38-.48.6-1.02.29-.72.29-1.55 0-.93-.36-1.7-.23-.49-.61-.91-.05-.06-.1-.11zM6.43 22.34q1.72.77 3.79.77 1.8 0 3.35-.6 1.17-.45 2.07-1.22.29-.25.56-.53l-.77-.79q-.72.71-1.58 1.18-1.56.84-3.58.84-1.59 0-2.96-.55-.45-.18-.88-.41-.94-.53-1.66-1.26-.61-.62-1.05-1.39-.26-.44-.45-.91-.54-1.33-.54-2.88 0-1.53.54-2.86.19-.47.45-.91.45-.79 1.07-1.42.72-.72 1.64-1.24.43-.23.88-.41 1.37-.55 2.96-.55 2.13 0 3.74.92.77.43 1.42 1.08l.77-.79q-.32-.34-.67-.63-.86-.7-1.95-1.12-1.54-.59-3.36-.59-2.05 0-3.76.76-.35.16-.69.35-1.03.57-1.83 1.36-.74.75-1.3 1.69-.27.47-.48.97-.65 1.56-.65 3.39 0 1.86.66 3.43.21.49.47.94.56.94 1.3 1.69.8.79 1.83 1.36.32.18.66.33zm152.78 0q1.73.77 3.79.77 1.8 0 3.35-.6 1.17-.45 2.08-1.22.29-.25.55-.53l-.77-.79q-.72.71-1.57 1.18-1.57.84-3.59.84-1.59 0-2.96-.55-.45-.18-.88-.41-.94-.53-1.66-1.26-.6-.62-1.05-1.39-.26-.44-.45-.91-.53-1.33-.53-2.88 0-1.53.53-2.86.19-.47.45-.91.46-.79 1.08-1.42.71-.72 1.63-1.24.43-.23.88-.41 1.37-.55 2.96-.55 2.13 0 3.75.92.76.43 1.41 1.08l.77-.79q-.31-.34-.67-.63-.86-.7-1.95-1.12-1.53-.59-3.36-.59-2.04 0-3.76.76-.35.16-.69.35-1.02.57-1.82 1.36-.75.75-1.3 1.69-.28.47-.49.97-.65 1.56-.65 3.39 0 1.86.67 3.43.2.49.47.94.55.94 1.3 1.69.8.79 1.82 1.36.33.18.66.33zm58.94.05q1.68.72 3.68.72 2.03 0 3.74-.74.37-.16.72-.36 1.07-.59 1.89-1.42.72-.72 1.24-1.63.28-.47.49-.96.65-1.57.65-3.41 0-1.81-.64-3.36-.21-.52-.5-1-.52-.9-1.24-1.62-.82-.84-1.89-1.43-.37-.2-.75-.37-1.7-.74-3.71-.74-1.98 0-3.65.72-.42.18-.82.4-1.08.61-1.91 1.45-.7.72-1.22 1.61-.32.54-.54 1.11-.6 1.5-.6 3.23 0 1.76.61 3.27.22.56.53 1.08.52.89 1.22 1.61.83.85 1.91 1.45.39.21.79.39zm95.08 0q1.69.72 3.69.72 2.03 0 3.74-.74.37-.16.72-.36 1.07-.59 1.89-1.42.71-.72 1.24-1.63.28-.47.48-.96.66-1.57.66-3.41 0-1.81-.64-3.36-.22-.52-.5-1-.53-.9-1.24-1.62-.82-.84-1.89-1.43-.37-.2-.75-.37-1.7-.74-3.71-.74-1.98 0-3.66.72-.41.18-.81.4-1.08.61-1.91 1.45-.7.72-1.22 1.61-.32.54-.55 1.11-.59 1.5-.59 3.23 0 1.76.61 3.27.22.56.53 1.08.52.89 1.22 1.61.83.85 1.91 1.45.38.21.78.39zm137 0q1.68.72 3.68.72 2.03 0 3.74-.74.37-.16.72-.36 1.07-.59 1.89-1.42.72-.72 1.24-1.63.28-.47.49-.96.65-1.57.65-3.41 0-1.81-.64-3.36-.21-.52-.5-1-.52-.9-1.24-1.62-.82-.84-1.89-1.43-.37-.2-.75-.37-1.7-.74-3.71-.74-1.98 0-3.65.72-.42.18-.82.4-1.08.61-1.91 1.45-.7.72-1.22 1.61-.32.54-.54 1.11-.6 1.5-.6 3.23 0 1.76.61 3.27.22.56.53 1.08.52.89 1.22 1.61.83.85 1.91 1.45.39.21.79.39zm33.79 0q1.68.72 3.68.72 2.03 0 3.74-.74.37-.16.72-.36 1.07-.59 1.9-1.42.71-.72 1.23-1.63.28-.47.49-.96.66-1.57.66-3.41 0-1.81-.65-3.36-.21-.52-.5-1-.52-.9-1.23-1.62-.83-.84-1.9-1.43-.36-.2-.75-.37-1.69-.74-3.71-.74-1.98 0-3.65.72-.42.18-.81.4-1.08.61-1.91 1.45-.71.72-1.23 1.61-.31.54-.54 1.11-.6 1.5-.6 3.23 0 1.76.61 3.27.23.56.53 1.08.52.89 1.23 1.61.83.85 1.91 1.45.38.21.78.39zm191.95 0q1.68.72 3.68.72 2.04 0 3.74-.74.37-.16.73-.36 1.07-.59 1.89-1.42.71-.72 1.24-1.63.27-.47.48-.96.66-1.57.66-3.41 0-1.81-.64-3.36-.22-.52-.5-1-.53-.9-1.24-1.62-.82-.84-1.89-1.43-.37-.2-.76-.37-1.69-.74-3.71-.74-1.98 0-3.65.72-.42.18-.81.4-1.08.61-1.91 1.45-.7.72-1.23 1.61-.31.54-.54 1.11-.59 1.5-.59 3.23 0 1.76.6 3.27.23.56.53 1.08.53.89 1.23 1.61.83.85 1.91 1.45.38.21.78.39zm129.49-5.98q-.34.75-.34 1.76h1.25q0-.84.29-1.47.29-.64.7-1.09.41-.46 1.15-1.13.79-.7 1.26-1.24t.79-1.3q.32-.75.32-1.76 0-.98-.4-1.76-.36-.7-1.06-1.23-1.47-1.12-3.91-1.12-2.91 0-4.76 1.4-.56.43-1.02.98l.88.7q.62-.72 1.39-1.17.31-.19.65-.33 1.18-.49 2.78-.49 2 0 3.1.89.56.44.83 1.03.27.57.27 1.26 0 1.14-.51 1.87-.52.73-1.59 1.69-.8.69-1.26 1.23-.47.52-.81 1.28zM21.38 15.03h4.03L31.82 23h1.44l-6.87-8.62 6.44-8.18h-1.37l-6.03 7.72h-4.05V6.2h-1.23V23h1.23v-7.97zm16.1-8.83h-1.22V23h1.22V6.2zM55.92 23V6.2H44.9l-.24 7.29q-.12 3.07-.49 4.92-.35 1.85-1.04 2.7-.33.42-.76.63-.45.22-1.02.22-.39 0-.8-.1L40.41 23q.55.14 1.2.14.84 0 1.48-.35.44-.24.8-.66.86-1 1.31-3.1.44-2.11.58-5.56L46 7.3h8.69V23h1.23zm17.31-9.34q-1.55-1.32-4.52-1.32h-5.52V6.2h-1.23V23h6.44q3.09 0 4.73-1.38.35-.3.63-.66 1.02-1.3 1.02-3.39 0-2.13-1.05-3.4-.22-.27-.5-.51zm6.95 1.37h4.03L90.62 23h1.44l-6.87-8.62 6.44-8.18h-1.37l-6.03 7.72h-4.05V6.2h-1.23V23h1.23v-7.97zm16.1-8.83h-1.22V23h1.08l11.45-14.72V23h1.22V6.2h-1.08L96.28 20.93V6.2zM132.41 23V6.2h-1.23v8.47q-2.93 1.29-5.49 1.29-2.34 0-3.63-1.12-.36-.31-.62-.69-.68-1-.68-2.46V6.2h-1.22v5.61q0 1.83.86 3.07.31.44.73.81 1.6 1.38 4.46 1.38 2.68 0 5.59-1.28V23h1.23zm6.93-4.73h9.74l2.16 4.73h1.32l-7.73-16.8h-1.22L135.88 23h1.32l2.14-4.73zm38.11 2.28L185.2 6.2h-1.27l-6.33 11.95-6.22-11.95h-1.35l6.89 13.1-.57.98q-.85 1.43-2.02 1.78-.39.12-.82.12-.72 0-1.53-.34l-.38 1.01q1.03.43 1.91.43.39 0 .76-.07.74-.15 1.42-.6 1.02-.67 1.76-2.06zM208.58 23V6.2h-13.83V23h1.23V7.3h11.37V23h1.23zm30.77-15.7h6.04V6.2h-13.31v1.1h6.04V23h1.23V7.3zm20.3.4q-1.8-1.5-4.97-1.5h-6.02V23h1.22v-5.5h4.8q3.17 0 4.97-1.5.61-.51 1.01-1.15.79-1.24.79-2.99 0-1.79-.81-3.05-.4-.62-.99-1.11zm6.94-1.5h-1.23V23h1.23V6.2zm18.02 0h-11.98V23h6.58q3.1 0 4.73-1.28.51-.39.86-.9.77-1.12.77-2.77 0-1.68-.8-2.77-.31-.42-.73-.76-1.54-1.2-4.49-1.2h-5.69V7.27h10.75V6.2zM303.66 23V6.2h-1.22v7.72h-11.23V6.2h-1.22V23h1.22v-8h11.23v8h1.22zm47.65 3.83v-4.94h-2.59V6.2H337.8l-.17 5.52q-.14 4.75-.81 7.39-.54 2.17-1.76 2.65-.26.11-.55.13h-.91l-.03 4.94h1.18l.02-3.83h15.36v3.83h1.18zM367.92 23V6.2H356.9l-.24 7.29q-.12 3.07-.49 4.92-.35 1.85-1.04 2.7-.33.42-.75.63-.46.22-1.03.22-.39 0-.8-.1l-.14 1.14q.55.14 1.2.14.84 0 1.48-.35.44-.24.8-.66.86-1 1.31-3.1.44-2.11.59-5.56L358 7.3h8.69V23h1.23zm17.56 0V6.2h-6.33q-2.82 0-4.53 1.37-.1.08-.19.16-.42.37-.74.82-1 1.39-1 3.5 0 2.04.96 3.41.03.03.05.06.2.28.44.52.94.97 2.44 1.39L372.69 23h1.32l3.72-5.35q.55.07 1.18.07h5.35V23h1.22zm24.49-7.28q-.94-1.05-2.81-1.37 1.22-.4 1.96-1.24.09-.09.17-.19.12-.15.21-.31.56-.9.56-2.14 0-1.32-.6-2.24-.34-.53-.87-.93-1.48-1.1-4.12-1.1h-6.77V23h7.22q2.98 0 4.49-1.15.52-.4.85-.9.66-.99.66-2.42 0-1.54-.73-2.54-.1-.14-.22-.27zm6.95-9.52h-1.22V23h1.08l11.45-14.72V23h1.22V6.2h-1.08l-11.45 14.73V6.2zm19.8 1.1h9.17V6.2H435.5V23h1.22V7.3zm34.71 0h6.04V6.2h-13.31v1.1h6.04V23h1.23V7.3zm41.82 8.42q-.95-1.05-2.82-1.37 1.22-.4 1.97-1.24.08-.09.16-.19.12-.15.22-.31.55-.9.55-2.14 0-1.32-.6-2.24-.34-.53-.87-.93-1.48-1.1-4.12-1.1h-6.77V23h7.23q2.97 0 4.48-1.15.52-.4.86-.9.66-.99.66-2.42 0-1.54-.74-2.54-.1-.14-.21-.27zM531.67 23V6.2h-11.02l-.24 7.29q-.12 3.07-.48 4.92t-1.05 2.7q-.33.42-.75.63-.46.22-1.03.22-.39 0-.8-.1l-.14 1.14q.55.14 1.21.14.83 0 1.47-.35.44-.24.8-.66.87-1 1.31-3.1.45-2.11.59-5.56l.21-6.17h8.69V23h1.23zm17.63 0v-1.11h-10.36V15h8.95v-1.08h-8.95V7.3h10.01V6.2h-11.24V23h11.59zm17.76 0V6.2h-1.22v7.72h-11.23V6.2h-1.22V23h1.22v-8h11.23v8h1.22zm19.73 0V6.2h-1.22v7.72h-11.23V6.2h-1.23V23h1.23v-8h11.23v8h1.22zm17.57 0V6.2h-6.33q-2.82 0-4.53 1.37-.1.08-.19.16-.42.37-.74.82-1 1.39-1 3.5 0 2.04.96 3.41.03.03.05.06.2.28.44.52.94.97 2.44 1.39L591.57 23h1.32l3.72-5.35q.55.07 1.18.07h5.35V23h1.22zm28.25-4.73h9.74l2.16 4.73h1.32L638.1 6.2h-1.22L629.15 23h1.32l2.14-4.73zm32.57-9.65l.03 14.38h1.19l-.02-16.8h-1.01l-7.51 12.98-7.51-12.98h-1.04V23h1.21V8.67l7.03 12.09h.6l7.03-12.14zm40.02 7.1q-.95-1.05-2.82-1.37 1.22-.4 1.97-1.24.08-.09.16-.19.12-.15.22-.31.56-.9.56-2.14 0-1.32-.61-2.24-.34-.53-.87-.93-1.48-1.1-4.12-1.1h-6.77V23h7.23q2.97 0 4.49-1.15.51-.4.85-.9.66-.99.66-2.42 0-1.54-.74-2.54-.1-.14-.21-.27zM723.62 23V6.2H712.6l-.24 7.29q-.12 3.07-.48 4.92t-1.04 2.7q-.33.42-.76.63-.46.22-1.03.22-.38 0-.79-.1l-.14 1.14q.55.14 1.2.14.83 0 1.47-.35.45-.24.8-.66.87-1 1.31-3.1.45-2.11.59-5.56l.22-6.17h8.69V23h1.22zm17.64 0v-1.11h-10.37V15h8.95v-1.08h-8.95V7.3h10.01V6.2h-11.23V23h11.59zm17.75 0V6.2h-1.21v7.72h-11.24V6.2h-1.22V23h1.22v-8h11.24v8h1.21zm19.73 0V6.2h-1.22v7.72h-11.23V6.2h-1.22V23h1.22v-8h11.23v8h1.22zm17.57 0V6.2h-6.33q-2.82 0-4.53 1.37-.09.08-.19.16-.42.37-.74.82-1 1.39-1 3.5 0 2.04.97 3.41l.04.06q.2.28.44.52.95.97 2.44 1.39L783.52 23h1.32l3.72-5.35q.55.07 1.18.07h5.35V23h1.22zm-571.35-1.63q-1.43.62-3.13.62-1.62 0-3.01-.57-.42-.17-.82-.39-.9-.51-1.6-1.21-.63-.64-1.1-1.44-.26-.44-.45-.91-.53-1.33-.53-2.88 0-1.53.53-2.86.19-.47.45-.91.48-.82 1.13-1.47.69-.69 1.57-1.19.4-.22.82-.39 1.39-.57 3.01-.57 1.7 0 3.13.62.35.16.68.34.85.48 1.52 1.14.68.67 1.17 1.52.26.44.45.91.54 1.33.54 2.86 0 1.55-.54 2.88-.19.47-.45.91-.48.83-1.14 1.49-.68.67-1.55 1.16-.33.19-.68.34zm95.08 0q-1.43.62-3.12.62-1.63 0-3.01-.57-.42-.17-.82-.39-.9-.51-1.6-1.21-.64-.64-1.1-1.44-.26-.44-.45-.91-.54-1.33-.54-2.88 0-1.53.54-2.86.19-.47.45-.91.48-.82 1.12-1.47.69-.69 1.58-1.19.4-.22.82-.39 1.38-.57 3.01-.57 1.69 0 3.12.62.36.16.69.34.85.48 1.52 1.14.68.67 1.17 1.52.26.44.45.91.53 1.33.53 2.86 0 1.55-.53 2.88-.19.47-.45.91-.49.83-1.15 1.49-.68.67-1.54 1.16-.33.19-.69.34zm137 0q-1.43.62-3.13.62-1.62 0-3.01-.57-.42-.17-.82-.39-.9-.51-1.6-1.21-.63-.64-1.1-1.44-.26-.44-.45-.91-.53-1.33-.53-2.88 0-1.53.53-2.86.19-.47.45-.91.48-.82 1.13-1.47.69-.69 1.57-1.19.4-.22.82-.39 1.39-.57 3.01-.57 1.7 0 3.13.62.35.16.68.34.85.48 1.52 1.14.68.67 1.17 1.52.26.44.45.91.54 1.33.54 2.86 0 1.55-.54 2.88-.19.47-.45.91-.48.83-1.14 1.49-.68.67-1.55 1.16-.33.19-.68.34zm33.79 0q-1.43.62-3.13.62-1.62 0-3.01-.57-.42-.17-.82-.39-.9-.51-1.6-1.21-.63-.64-1.1-1.44-.25-.44-.44-.91-.54-1.33-.54-2.88 0-1.53.53-2.86.19-.47.45-.91.48-.82 1.13-1.47.69-.69 1.57-1.19.4-.22.82-.39 1.39-.57 3.01-.57 1.7 0 3.13.62.35.16.68.34.85.48 1.52 1.14.68.67 1.17 1.52.26.44.45.91.54 1.33.54 2.86 0 1.55-.54 2.88-.19.47-.45.91-.48.83-1.14 1.49-.68.67-1.55 1.16-.33.19-.68.34zm191.95 0q-1.43.62-3.13.62-1.62 0-3.01-.57-.42-.17-.81-.39-.91-.51-1.61-1.21-.63-.64-1.1-1.44-.25-.44-.44-.91-.54-1.33-.54-2.88 0-1.53.54-2.86.19-.47.44-.91.48-.82 1.13-1.47.69-.69 1.58-1.19.39-.22.81-.39 1.39-.57 3.01-.57 1.7 0 3.13.62.35.16.69.34.84.48 1.51 1.14.68.67 1.18 1.52.25.44.45.91.53 1.33.53 2.86 0 1.55-.54 2.88-.19.47-.44.91-.49.83-1.15 1.49-.68.67-1.54 1.16-.34.19-.69.34zm-278.34-7.4h-5.52V7.23h5.52q2.12 0 3.24.86.36.27.6.62.53.76.53 1.9 0 1.1-.51 1.85-.25.37-.62.65-1.12.86-3.24.86zm103.28 0h-5.52V7.23h5.52q2.11 0 3.24.86.35.27.59.62.54.76.54 1.9 0 1.1-.51 1.85-.25.37-.62.65-1.13.86-3.24.86zm191.95 0h-5.52V7.23h5.52q2.11 0 3.24.86.35.27.6.62.53.76.53 1.9 0 1.1-.51 1.85-.25.37-.62.65-1.13.86-3.24.86zm-440.89 1.25q-1.41 1.18-4.1 1.18h-4.8V7.3h4.8q2.69 0 4.1 1.19.4.33.68.74.74 1.05.74 2.63 0 1.59-.75 2.64-.28.4-.67.72zm79.34 3.26q.49-2.59.64-6.67l.14-4.51h8.59v14.59h-11.04q1.18-.82 1.67-3.41zm36.73-3.43q-.91-1.15-.91-3.02 0-1.88.91-3.03.21-.26.47-.49 1.38-1.21 3.92-1.21h5.02v9.36h-5.23q-2.5 0-3.8-1.2-.2-.19-.38-.41zm218.88 0q-.91-1.15-.91-3.02 0-1.88.91-3.03.21-.26.47-.49 1.38-1.21 3.92-1.21h5.02v9.36h-5.24q-2.49 0-3.79-1.2-.2-.19-.38-.41zm191.96 0q-.92-1.15-.92-3.02 0-1.88.91-3.03.21-.26.47-.49 1.38-1.21 3.92-1.21h5.02v9.36h-5.23q-2.5 0-3.79-1.2-.21-.19-.38-.41zM144.21 7.54l4.41 9.7h-8.8l4.39-9.7zm493.27 0l4.41 9.7h-8.8l4.39-9.7zM72.23 20.86q-1.29 1.1-3.81 1.1h-5.23v-8.59h5.23q3.04 0 4.27 1.5.84 1.01.84 2.72 0 1.77-.87 2.83-.19.24-.43.44zm210.82.13q-1.29.97-3.82.97h-5.37v-7.63h5.37q3.32 0 4.49 1.58.63.86.63 2.19 0 1.36-.65 2.24-.27.37-.65.65zm126.06-.5q-1.08 1.47-4.16 1.47h-6.03v-6.98h6.03q2.35 0 3.55.84.32.23.56.52.64.81.64 2.12 0 1.23-.59 2.03zm103.27 0q-1.08 1.47-4.16 1.47h-6.02v-6.98h6.02q2.35 0 3.55.84.32.23.56.52.64.81.64 2.12 0 1.23-.59 2.03zm191.95 0q-1.08 1.47-4.16 1.47h-6.02v-6.98h6.02q2.35 0 3.55.84.33.23.56.52.64.81.64 2.12 0 1.23-.59 2.03zm101.03 2.52q.18.08.39.08.25 0 .45-.1.15-.07.26-.19.15-.14.22-.32.08-.17.08-.38 0-.19-.07-.35-.07-.19-.23-.34-.11-.12-.26-.18-.2-.1-.45-.1-.21 0-.39.07-.17.07-.31.21-.14.15-.21.32-.07.18-.07.37 0 .22.07.4.07.16.21.3.14.14.31.21zm219.06-17.06l-7.42 7.42-7.42-7.42c-.6-.6-1.53-.6-2.13 0a1.49 1.49 0 000 2.12l8.49 8.49c.59.59 1.53.59 2.12 0l8.49-8.49c.59-.59.59-1.53 0-2.12-.61-.6-1.53-.6-2.13 0z" fill="#705A66" fill-rule="evenodd"/></svg>