<svg width="79" height="93" fill="none" xmlns="http://www.w3.org/2000/svg"><path d="M10.33 1C-1.35 2.26.36 28.72 2.65 35.98c5.29 16.78 19.9 30.14 34.93 28.04m0 0c5.67-.79 11.4-3.77 16.72-9.61 7.6-8.34 5.96-27.4-8.86-24.62-17.05 3.2-14.46 20.28-7.86 34.23 3.21 6.77 7.35 12.81 10.67 16.17 4.03 4.09 13.35 7.69 20.91 7.17m0 0c2.41-.16 4.64-.75 6.46-1.87m0 0c.28-.17.55-.35.81-.55 1.07-.81.52-.78-.8-.31-1.54.55-4.14 1.68-6.47 2.73-1.5.68-2.88 1.32-3.8 1.76-9.48 4.49 5.59-.27 8.71-2.02.9-.51 1.39-1.05 1.55-1.61.08-.28.08-.57.01-.86m0 0c-.69-2.88-8.3-5.97-9.53-7.18" stroke="#705A66" stroke-width="3" stroke-linecap="round"/></svg>