<svg width="102" height="70" fill="none" xmlns="http://www.w3.org/2000/svg"><defs><clipPath id="a"><path fill="#fff" fill-opacity="0" d="M0 0h102v70H0z"/></clipPath></defs><path d="M0 0h102v70H0z"/><g clip-path="url(#a)"><path d="M23.93 10.62l3.95.07-8.73 28.46c1.21.3 2.34.65 3.41 1.05-1.05-.39-2.16-.74-3.34-1.03-7.65-1.7-13.98.78-19.22 6.68l6.53 3.04 27.75 12.96c.21-1.69.31-3.26.28-4.75.01.21.02.43.02.66h31.85c.01 6.76 5.56 12.23 12.39 12.23 6.83 0 12.38-5.48 12.38-12.23h10.43c.72-14.03-5.97-24.81-17.69-25.85h15.77c1.26 0 2.28-1.01 2.28-2.25v-2.47c0-1.22-1.02-2.22-2.24-2.22h-.2V8.04c0-1.11-.93-2.02-2.05-2.02H68.12c-1.12 0-2.04.91-2.04 2.02v16.93H51.55c-1.53-.05-2.35.64-2.36 2.16v7.93c6.54 5.09 7.54 13.05 1.57 17.54h-9.68c-.25-7.63-4.65-12.28-11.97-17.42l4.36-13.32c1.8-4.14.62-7.28-2.01-9.47.82-2.61 1.41-4.85 1.22-6.67l4.58.94c1.48.3 1.86.83 2.35-.59.08-.25.15-.49.19-.74.37-1.94.14-1.81-1.46-2.11l-4.88-.94h-1.45l-1.79-1A9.18 9.18 0 0026.9.17l-1.57-.1c-1.61 0-3.42-.44-4.35 1.03-.02.02-.03.11-.03.24-.66.22-1.22.71-1.65 1.37-.52.81-.84 1.91-.84 3.11s.33 2.3.84 3.1c.58.91 1.42 1.48 2.38 1.51.56.39 1.44.17 2.25.19zm61.67 9.39h10.34v1.8H85.6v-1.8zM77.74 7.78h7.47v8.04l-3.92-3.01-3.55 3.01V7.78zm7.86 16.91h10.34v1.8H85.6v-1.8zM6.56 48.92l11.04 5.17-3.58-1.62c-2.47.51-4.31 2.68-4.31 5.27 0 2.98 2.44 5.4 5.45 5.4 3.01 0 5.45-2.42 5.45-5.4 0-.92-.23-1.78-.63-2.55l7.53 3.54C27.01 65.03 21.67 70 15.17 70 8.33 70 2.78 64.51 2.78 57.74c-.01-3.47 1.44-6.6 3.78-8.82zM20.97 3.45c.05 1.57.16 3.6.23 4.96-.13-.11-.26-.26-.38-.45-.35-.53-.55-1.3-.55-2.15 0-.85.21-1.62.55-2.15.05-.08.1-.15.15-.21zm52.4 54.31h10.91c-.01 2.97-2.45 5.37-5.45 5.37-3.01 0-5.45-2.4-5.46-5.37z" fill="#DDD5C6" fill-rule="evenodd"/></g></svg>