<svg width="32" height="32" fill="none" xmlns="http://www.w3.org/2000/svg"><defs><clipPath id="a"><path fill="#fff" fill-opacity="0" d="M0 0h32v32H0z"/></clipPath></defs><path d="M0 0h32v32H0z"/><g clip-path="url(#a)"><path d="M8.56 6.44c-.29-.27-.67-.41-1.05-.41-.39.01-.76.17-1.04.44-.27.28-.43.65-.44 1.04 0 .38.14.76.41 1.05L13.87 16l-7.43 7.44c-.15.13-.27.3-.35.48-.08.19-.13.38-.13.59-.01.2.03.4.11.58.07.19.18.36.33.5.14.15.31.26.5.33.18.08.38.12.58.11.21 0 .4-.05.59-.13.18-.08.35-.2.49-.34L16 18.12l7.44 7.44a1.496 1.496 0 001.07.47c.2.01.4-.03.58-.11.19-.07.36-.18.5-.33.15-.14.26-.31.33-.5.08-.18.12-.38.11-.58 0-.21-.04-.4-.13-.59-.08-.18-.2-.35-.34-.48L18.12 16l7.44-7.44c.26-.29.4-.67.4-1.05-.01-.39-.17-.76-.44-1.04-.28-.27-.65-.43-1.04-.44-.38 0-.76.14-1.04.41L16 13.88 8.56 6.44z" fill="#F5F7F8" fill-rule="evenodd"/></g></svg>