<svg width="30" height="30" fill="none" xmlns="http://www.w3.org/2000/svg"><defs><clipPath id="a"><path fill="#fff" fill-opacity="0" d="M0 0h30v30H0z"/></clipPath></defs><path d="M0 0h30v30H0z"/><g clip-path="url(#a)"><path d="M8.75 22.5c-1.38 0-2.49 1.12-2.49 2.5 0 1.37 1.11 2.5 2.49 2.5 1.37 0 2.5-1.13 2.5-2.5 0-1.38-1.13-2.5-2.5-2.5zm-7.5-20V5h2.5l4.5 9.48-1.69 3.06a2.507 2.507 0 002.19 3.71h15v-2.5H9.27c-.18 0-.31-.14-.31-.32l.04-.15 1.12-2.03h9.31c.94 0 1.77-.52 2.19-1.29l4.48-8.11A1.257 1.257 0 0025 5H6.51L5.33 2.5H1.25zm20 20c-1.38 0-2.49 1.12-2.49 2.5 0 1.37 1.11 2.5 2.49 2.5 1.37 0 2.5-1.13 2.5-2.5 0-1.38-1.13-2.5-2.5-2.5z" fill="#705A66"/></g></svg>