<svg width="80" height="78" fill="none" xmlns="http://www.w3.org/2000/svg"><defs><clipPath id="a"><path transform="translate(0 -.022)" fill="#fff" fill-opacity="0" d="M0 0h80v77.044H0z"/></clipPath></defs><path d="M0-.022h80v77.044H0z"/><g clip-path="url(#a)"><path d="M19.41 4.83c-.22 0-.44.04-.64.12-.21.08-.39.2-.55.36-.15.15-.28.33-.36.53-.09.21-.13.42-.13.64v3.75l-4.85 4.85V4.45c0-1.19.47-2.33 1.31-3.17.84-.83 1.98-1.3 3.17-1.31h58.16c1.18.01 2.32.48 3.17 1.31a4.64 4.64 0 011.3 3.16v47.77c0 1.19-.29 2.57-1.3 3.17a4.54 4.54 0 01-3.17 1.31H40.15c-.21-1.15-.57-2.27-1.05-3.33l1.56-1.56H73.5a1.643 1.643 0 001.64-1.64V6.48c0-.44-.17-.86-.48-1.17-.31-.31-.73-.48-1.17-.48h-8.98v17.21l-9.5-4.75-9.44 4.75V4.83H19.41zM6.08 50.56L4.01 62.28c-.03.15-.1.29-.2.41a4.68 4.68 0 00-1.05 2.14c-.06.21-.06.43 0 .64.06.21.17.4.33.54l7.5 7.53c.5.49 1.14.81 1.83.93.79.25 1.63.27 2.44.07h.06l1.41-.35c2.17-.53 4.06-.99 5.81-2.6l2.26-2.35c.02-.04.05-.08.09-.11.03 0 .25-.26.55-.54 1.54-1.51 3.45-3.37 2.29-5l-.91-.9c-.44.42-.9.83-1.34 1.23-.44.41-.79.7-1.14 1.05a.952.952 0 01-1.63-.68c0-.25.1-.49.28-.67.35-.35.78-.74 1.23-1.13 1.53-1.35 3.25-2.89 2.33-4.24l-.89-.89-.13-.16c-.51.53-1.08 1.03-1.63 1.52-.41.35-.78.69-1.14 1.04a.93.93 0 01-.67.28c-.25 0-.49-.1-.67-.28a.945.945 0 01-.21-.31.946.946 0 01-.08-.37c0-.12.03-.25.08-.36.05-.12.12-.22.21-.31.34-.35.78-.74 1.22-1.13 1.53-1.34 3.26-2.89 2.34-4.23l-.89-.9c-.06-.06-.12-.13-.16-.2l-2.6 2.6a.97.97 0 01-.68.28c-.25 0-.49-.1-.67-.28a.952.952 0 010-1.35l4.91-4.91c1.18-1.18 1.45-2.41 1.14-3.34-.11-.33 0-.34-.24-.58a3.03 3.03 0 00-.41-.32c-.08 0-.13-.04-.2-.11a2.03 2.03 0 00-.26-.11c-.81-.27-1.59.21-2.66 1.12l-.04.04c-.12.09-.24.2-.35.32L11.24 55.53a.952.952 0 01-1.35 0 .963.963 0 01-.28-.6c-.02-.23.05-.46.19-.64l-3.72-3.73zm6.15.7l.34-.32 6.72-6.73a6.676 6.676 0 01-3.02-2.76 6.553 6.553 0 01-.8-4.02 6.55 6.55 0 015.33-5.66c1.37-.26 2.79-.06 4.05.55 1.26.61 2.29 1.6 2.94 2.84.65 1.24.89 2.65.68 4.04-.2 1.38-.85 2.66-1.83 3.65l-.07.07c.05.04.1.09.15.14.21.2.39.41.55.65l8.35-8.31c-.61-.62-.96-1.46-.96-2.33 0-.87.35-1.71.96-2.33l-6.22-6.22c-.61.62-1.45.97-2.32.97-.87 0-1.71-.35-2.33-.97L7.46 41.82c.61.62.95 1.46.95 2.33 0 .87-.34 1.71-.95 2.33l4.77 4.78zm14.68-2.21c-.24.33-.5.64-.8.92l-.97.98c.08.04.15.1.21.16l.93.93c.05.06.1.11.14.17.46.54.72 1.22.75 1.93.03.7-.17 1.4-.58 1.98.13.05.25.12.35.22l.93.93c.05.06.09.11.13.18.48.58.74 1.31.74 2.06 0 .76-.26 1.49-.74 2.07.05.03.08.06.12.1l.93.93c.05.06.1.11.14.18 2.17 2.96-.42 5.47-2.5 7.5l-.53.54-2.31 2.42-.08.08c-2.11 1.95-4.22 2.43-6.65 3.02l-1.38.35h-.04a8.33 8.33 0 01-3.58.25 5.231 5.231 0 01-2.83-1.46l-8.06-8.1c-.4-.36-.68-.83-.84-1.34-.15-.51-.16-1.05-.04-1.57.3-1.13.84-2.17 1.6-3.06l2.12-12.21v-.06c0-.15.05-.32.09-.51L0 44.49l27.44-27.45 15.74 15.74L26.9 49.06l.01-.01z" fill="#DDD5C6"/></g></svg>