<svg width="34" height="34" fill="none" xmlns="http://www.w3.org/2000/svg"><path d="M33.9 9.99c-.08-1.82-.37-3.05-.79-4.14a8.194 8.194 0 00-1.96-3 8.324 8.324 0 00-3-1.96C27.06.46 25.83.18 24.02.1 22.2.02 21.62 0 17.01 0c-4.62 0-5.19.02-7 .1C8.2.18 6.96.47 5.88.89 4.76 1.32 3.8 1.9 2.87 2.85c-.94.94-1.54 1.89-1.96 3C.49 6.94.2 8.17.12 9.99.04 11.8.02 12.38.02 17c0 4.62.02 5.19.1 7 .08 1.82.37 3.05.79 4.14a8.194 8.194 0 001.96 3c.93.95 1.89 1.53 3 1.96 1.08.43 2.32.71 4.13.79 1.82.08 2.39.11 7.01.11 4.61 0 5.19-.03 7-.11 1.81-.08 3.05-.37 4.13-.79 1.11-.43 2.07-1.01 3.01-1.96.93-.94 1.53-1.89 1.95-3 .43-1.09.71-2.32.79-4.14.08-1.81.11-2.39.11-7 0-4.62-.02-5.2-.1-7.01zm-3.05 13.88c-.08 1.66-.36 2.56-.59 3.16-.3.79-.68 1.36-1.28 1.96-.6.59-1.16.96-1.96 1.28-.59.23-1.5.51-3.15.58-1.79.08-2.33.1-6.87.1s-5.08-.02-6.87-.1c-1.66-.07-2.57-.35-3.16-.58-.79-.31-1.36-.69-1.96-1.28-.59-.6-.95-1.17-1.27-1.96-.24-.6-.51-1.51-.59-3.16-.08-1.79-.1-2.33-.1-6.87 0-4.55.02-5.09.1-6.88.08-1.66.35-2.56.59-3.16.3-.79.68-1.36 1.27-1.96.6-.59 1.17-.96 1.96-1.28.6-.23 1.51-.51 3.16-.58 1.79-.08 2.33-.1 6.87-.1s5.08.02 6.87.1c1.66.07 2.56.35 3.15.58.79.31 1.36.69 1.96 1.28.6.6.96 1.17 1.28 1.96.23.6.51 1.51.59 3.16.08 1.79.1 2.33.1 6.88 0 4.54-.03 5.08-.1 6.87z" fill="#FFF"/><path d="M17 8.26c-4.83 0-8.73 3.91-8.73 8.74s3.91 8.73 8.73 8.73 8.73-3.92 8.73-8.73c0-4.84-3.9-8.74-8.73-8.74zm0 14.4c-3.13 0-5.67-2.53-5.67-5.66 0-3.14 2.54-5.67 5.67-5.67s5.66 2.53 5.66 5.67c0 3.13-2.53 5.66-5.66 5.66z" fill="#FFF"/><path d="M28.11 7.92c0 1.12-.91 2.04-2.04 2.04s-2.04-.92-2.04-2.04c0-1.13.91-2.05 2.04-2.05s2.04.92 2.04 2.05z" fill="#FFF" fill-rule="evenodd"/><path d="M0 17c0 4.62.02 5.19.1 7 .08 1.82.37 3.05.79 4.14a8.294 8.294 0 001.95 3c.94.94 1.9 1.53 3.01 1.96 1.08.43 2.32.71 4.13.79 1.82.08 2.39.11 7 .11 4.62 0 5.2-.03 7.01-.11 1.81-.08 3.05-.37 4.13-.79 1.11-.43 2.07-1.01 3-1.96.94-.94 1.54-1.89 1.96-3 .43-1.09.71-2.32.79-4.14.08-1.81.1-2.39.1-7 0-4.63-.02-5.2-.1-7.01-.08-1.82-.37-3.05-.79-4.14a8.194 8.194 0 00-1.96-3c-.93-.95-1.88-1.53-2.99-1.96C27.04.46 25.81.18 24 .1 22.18.02 21.6 0 16.99 0c-4.62 0-5.19.02-7 .1-1.81.08-3.05.37-4.13.79a8.148 8.148 0 00-3.01 1.96c-.94.94-1.53 1.89-1.96 3C.47 6.94.18 8.17.1 9.99.02 11.8 0 12.37 0 17zm3.06 0c0-4.54.02-5.09.1-6.88.08-1.66.36-2.56.59-3.16.31-.79.68-1.36 1.28-1.96.6-.59 1.16-.96 1.96-1.28.6-.23 1.5-.51 3.15-.58 1.79-.08 2.33-.1 6.87-.1 4.55 0 5.08.02 6.87.1 1.66.07 2.57.35 3.16.58.79.31 1.36.69 1.96 1.28.59.6.96 1.17 1.27 1.96.24.6.51 1.51.59 3.16.08 1.79.1 2.33.1 6.88 0 4.54-.02 5.08-.1 6.87-.08 1.66-.35 2.56-.59 3.16-.3.79-.68 1.36-1.27 1.96-.6.59-1.17.96-1.96 1.28-.6.23-1.51.51-3.16.58-1.79.08-2.32.1-6.87.1-4.54 0-5.08-.02-6.87-.1-1.66-.07-2.56-.35-3.15-.58-.79-.31-1.36-.69-1.96-1.28-.6-.6-.96-1.17-1.28-1.96-.23-.6-.51-1.51-.59-3.16-.08-1.79-.1-2.34-.1-6.87z" fill="#FFF"/></svg>