<svg width="251" height="147" fill="none" xmlns="http://www.w3.org/2000/svg"><defs><clipPath id="a"><path fill="#fff" fill-opacity="0" d="M0 0h251v147H0z"/></clipPath></defs><g clip-path="url(#a)" stroke="#705A66" stroke-width="3" stroke-linecap="round"><path d="M116.37 4.56c-.92-6.45-3.8-5.16-8.07-1.68C95.28 13.5 87.5 28.56 79.32 42.95c-10.74 18.88-19.71 38.66-29.96 57.79-7.19 13.41-15.91 28.8-29.17 37.15-7.73 4.86-17.45 2.59-19.59-7.18-2.75-12.58 4.26-24.96 12.68-33.69C25.55 84.3 40.3 79.67 56.71 74.59c5.33-1.64 12.56-2.98 16.58-7"/><path d="M97.22 23.71c-2.27.57-5.26 6.35-6.2 7.89-6.77 11.02-11.89 23.25-16.98 35.1-10.79 25.15-19.28 51.05-26.28 77.48m26.33-31.91c18.78-10.9 36.62-24.58 51.86-40.11 4.21-4.3 14.53-13.19 14.53-19.99 0-6.91-14.22 5.71-14.71 6.16-18.69 16.96-36.09 38.61-43.26 63.25-.63 2.15-2.83 11.51 2.66 7.97s10.27-9.71 13.29-15.42c5.92-11.17-8.45-4.05-12.18-.31-1.32 1.32-3.63 4.43-1.29 6.07 3.43 2.41 9.77-1.18 12.81-2.57 6.72-3.08 13.53-6.06 20.08-9.48 1.95-1.02 6.96-4.9 5.89-2.97-1.49 2.68-7.28 10.95-.04 10.32 4.1-.35 7.96-3.32 11.39-5.32 2.95-1.71 10.2-4.61 10.68-8.77.97-8.32-16.21-1.08-18.35 1.59-1.61 2.03-2.02 5.02.31 6.65 3.48 2.44 8.56.3 12.01-1.06 5.32-2.09 10.33-4.96 15.47-7.45 2.3-1.11 6.26-3.63 8.82-1.77 2.68 1.95-1.61 7.78 3.55 6.47 3.67-.93 7.58-2.75 10.9-4.52 1-.53 6.29-5.09 7.54-4.52.73.33-1.05 1.42-.93 2.22.32 2.24 4.7 1 5.89.62 11.93-3.9 21.4-16.95 29.08-26.15"/><path d="M230.46 56.42c-.36-1.62-14.97 16.64-16.53 19.28-6.5 10.95-11.97 22.48-16.98 34.17m3.99-40.68c14.39 1.91 28.73 4.15 43.08 6.38m-90.95 57.44c3.56-5.5 3.7 3.15 3.55 5.54-.15 2.4-1.24 5.75-.8 8.11.33 1.75 6.57-4.75 6.82-5.05 3.16-3.87 5.86-8.48 10.29-11.08 2.23-1.31 2.17 1.48 2.57 2.92 2.3 8.34 12.34 3.81 16.97.27 2.07-1.58 8.43-10.48 9.89-5.67 2.56 8.47 14.22 2.78 17.99-1.42 7.7-8.57-5.03-11.76-5.76-3.99-1.23 13.03 31.58.83 36.61-.8"/></g></svg>