<svg width="86" height="86" fill="none" xmlns="http://www.w3.org/2000/svg"><defs><clipPath id="a"><path fill="#fff" fill-opacity="0" d="M0 0h86v86H0z"/></clipPath></defs><path d="M0 0h86v86H0z"/><g clip-path="url(#a)" fill="#DDD5C6" fill-rule="evenodd"><path d="M18.81 64.53c-.72 0-1.4.28-1.9.79-.51.5-.79 1.19-.79 1.9s.28 1.4.79 1.9c.5.5 1.18.79 1.9.79h16.12c.72 0 1.4-.29 1.9-.79.51-.5.79-1.19.79-1.9s-.28-1.4-.79-1.9c-.5-.51-1.18-.79-1.9-.79H18.81z"/><path d="M16.12 5.41c-.5 0-.99.14-1.41.4-.43.26-.77.64-.99 1.09L5.65 23.12c-.17.35-.26.74-.26 1.13-.01.02-.02.04-.02.06v53.66c0 .71.28 1.4.79 1.9.5.5 1.18.79 1.9.79h69.87c.72 0 1.4-.29 1.9-.79.51-.5.79-1.19.79-1.9V24.31c0-.42-.1-.82-.28-1.19L72.27 6.9c-.22-.45-.56-.83-.99-1.09-.42-.26-.91-.4-1.41-.4H16.12zm1.66 5.37h16.69l-1.76 10.85H12.39l5.39-10.85zm22.12 0h11.57l1.81 10.85H38.15l1.75-10.85zm17.02 0h11.29l5.39 10.85H58.73l-1.81-10.85zM10.75 27h21.5v26.78c0 .53.15 1.05.45 1.49.29.45.71.79 1.2.99.5.21 1.04.26 1.56.16.52-.11 1-.36 1.37-.74l8.85-8.85 8.85 8.85c.38.38.86.63 1.38.74.52.1 1.06.05 1.55-.16.49-.2.91-.54 1.21-.99.29-.44.45-.96.45-1.49V27h16.13v48.28h-64.5V27zm26.87 0h16.13v20.29l-6.17-6.16c-.5-.5-1.18-.79-1.9-.79-.71 0-1.39.29-1.9.79l-6.16 6.16V27z"/></g></svg>