<svg width="34" height="34" fill="none" xmlns="http://www.w3.org/2000/svg"><path d="M13.53 33.99a.96.96 0 01-.33-.06c-.44-.17-.73-.63-.73-1.15V21.73c0-.35.13-.68.36-.91l4.48-4.53-7.4 4.91c-.31.21-.69.22-1.01.04L.58 16.5c-.37-.21-.6-.66-.58-1.14.02-.48.28-.9.67-1.07L32.55.08c.35-.17.77-.09 1.07.2.29.29.43.74.35 1.17l-5.54 31.57c-.07.38-.29.7-.6.87-.31.16-.67.14-.97-.06l-8.89-5.78-3.59 5.46c-.2.31-.52.48-.85.48zm4.16-8.74c.18 0 .36.05.52.16l8.42 5.48 4.88-27.74-27.83 12.4 5.65 3.23L25.47 8.05c.47-.31 1.08-.16 1.39.34.32.51.26 1.21-.15 1.62L14.59 22.28v6.87l2.25-3.41c.21-.32.52-.49.85-.49z" fill="#F5F7F8"/></svg>