<svg width="35" height="35" fill="none" xmlns="http://www.w3.org/2000/svg"><path d="M0 14.52c0 8.39 3.36 11.99 8.09 13.49v4.21c-.04.35.05.71.24 1.01.18.31.47.54.8.66.34.13.7.14 1.04.03.35-.1.64-.31.85-.6l3.79-4.31H17c8.82 0 17-1.41 17-14.52C34 1.37 25.82 0 17 0 8.17 0 0 1.41 0 14.52z" stroke="#F5F7F8" stroke-width="1.421" stroke-linejoin="round"/><path d="M20.23 24.2c.95.01 1.87-.31 2.6-.9.74-.58 1.25-1.41 1.45-2.33v-1.61s-1.99-.97-3.24-1.61c-1.24-.65-3.23 1.61-3.23 1.61-1.52-.49-2.9-1.32-4.05-2.42a10.47 10.47 0 01-2.43-4.04s2.27-1.98 1.62-3.22c-.65-1.25-1.62-3.23-1.62-3.23H9.71c-.92.2-1.75.71-2.34 1.44-.59.74-.91 1.65-.9 2.59 0 2.15 2.75 6.78 4.86 8.88 2.1 2.1 6.75 4.84 8.9 4.84zM17 11.29c.64 0 1.26.26 1.71.71.46.45.71 1.07.71 1.71M17 4.84c2.36 0 4.62.93 6.29 2.6a8.848 8.848 0 012.61 6.27M17 8.06c1.5 0 2.94.6 4 1.66a5.598 5.598 0 011.66 3.99" stroke="#F5F7F8" stroke-width="1.421" stroke-linejoin="round"/></svg>